<svg xmlns="http://www.w3.org/2000/svg" viewBox="0 0 500 500"><g id="freepik--background-complete--inject-48"><rect y="382.4" width="500" height="0.25" style="fill:#ebebeb"></rect><rect x="52.46" y="391.92" width="26" height="0.25" style="fill:#ebebeb"></rect><rect x="146.33" y="389.21" width="54.1" height="0.25" style="fill:#ebebeb"></rect><rect x="79.46" y="401.21" width="26.32" height="0.25" style="fill:#ebebeb"></rect><rect x="430.67" y="399.53" width="19.23" height="0.25" style="fill:#ebebeb"></rect><rect x="391.47" y="399.53" width="30.29" height="0.25" style="fill:#ebebeb"></rect><rect x="258.23" y="395.31" width="54.56" height="0.25" style="fill:#ebebeb"></rect><path d="M237,337.8H43.91a5.71,5.71,0,0,1-5.7-5.71V60.66A5.71,5.71,0,0,1,43.91,55H237a5.71,5.71,0,0,1,5.71,5.71V332.09A5.71,5.71,0,0,1,237,337.8ZM43.91,55.2a5.46,5.46,0,0,0-5.45,5.46V332.09a5.46,5.46,0,0,0,5.45,5.46H237a5.47,5.47,0,0,0,5.46-5.46V60.66A5.47,5.47,0,0,0,237,55.2Z" style="fill:#ebebeb"></path><path d="M453.31,337.8H260.21a5.72,5.72,0,0,1-5.71-5.71V60.66A5.72,5.72,0,0,1,260.21,55h193.1A5.71,5.71,0,0,1,459,60.66V332.09A5.71,5.71,0,0,1,453.31,337.8ZM260.21,55.2a5.47,5.47,0,0,0-5.46,5.46V332.09a5.47,5.47,0,0,0,5.46,5.46h193.1a5.47,5.47,0,0,0,5.46-5.46V60.66a5.47,5.47,0,0,0-5.46-5.46Z" style="fill:#ebebeb"></path><circle cx="403.37" cy="163.41" r="25.59" style="fill:#fafafa"></circle><path d="M134.15,125.77a13.26,13.26,0,0,0-3.6.69c-.28-2.4-3.17-3.87-8.3-3.7a37,37,0,0,0-8.42,1.37c1.79-3.61,0-6.17-5-6.17a26.9,26.9,0,0,0-9.68,2.21c-.73-2.42-3.48-3.91-8.1-3.91-7.37,0-17.32,3.78-24.93,9.1-3.66.09-10.7,2.19-11.89,4.07h81.34l.38-.35C137.89,127.16,137.11,125.67,134.15,125.77Z" style="fill:#e6e6e6"></path><path d="M453.17,176.24a15,15,0,0,0-4,.76c-.31-2.65-3.5-4.27-9.18-4.09a40.63,40.63,0,0,0-9.31,1.52c2-4,0-6.82-5.58-6.82a29.7,29.7,0,0,0-10.7,2.44c-.81-2.68-3.85-4.33-9-4.33-8.14,0-19.15,4.19-27.57,10.07-4.05.1-11.82,2.42-13.15,4.5h90c.14-.13.28-.25.42-.39C457.3,177.78,456.44,176.14,453.17,176.24Z" style="fill:#f5f5f5"></path><path d="M406.07,114.93a20.23,20.23,0,0,0-5.81,1.28c1-4.46-2.4-7.19-10.16-6.89a54,54,0,0,0-13.44,2.57s0,0,0,0c4.87-6.72,3.7-11.48-3.82-11.48-4.28,0-9.91,1.54-15.81,4.11.39-4.52-2.83-7.29-9.75-7.29-8.57,0-20.87,4.26-32.8,10.82-.32-1.91-2.12-3-5.43-3-4.58,0-11,2.15-17.41,5.53-.41,0-.84,0-1.3,0-8.11.56-19.52,4.93-26.13,9.92H407.35C410.8,117.23,410.32,114.77,406.07,114.93Z" style="fill:#f0f0f0"></path><path d="M154.1,170.71a8.13,8.13,0,0,0-2.4.52c.42-1.83-1-3-4.19-2.84a22.08,22.08,0,0,0-5.54,1.06h0c2-2.77,1.52-4.73-1.58-4.73a17.56,17.56,0,0,0-6.52,1.69c.16-1.86-1.17-3-4-3-3.53,0-8.61,1.75-13.52,4.46-.14-.79-.88-1.25-2.24-1.25a17.26,17.26,0,0,0-7.19,2.28l-.53,0A23.23,23.23,0,0,0,95.6,173h59C156,171.65,155.85,170.64,154.1,170.71Z" style="fill:#fafafa"></path><path d="M67.45,192.23c-5.69-1.42-9.24-4.35-13.26.6,5.6-3.83,13,1.77,13,1.77s8.31-4.24,13.17.5C77.3,189.53,73.3,191.81,67.45,192.23Z" style="fill:#e0e0e0"></path><path d="M93.68,208.54c-3.62-.9-5.87-2.77-8.43.38,3.56-2.44,8.3,1.12,8.3,1.12s5.27-2.69,8.36.32C99.93,206.82,97.39,208.27,93.68,208.54Z" style="fill:#e0e0e0"></path><path d="M394.1,80.35c-4.76-1.19-7.72-3.64-11.08.5,4.68-3.2,10.91,1.48,10.91,1.48s6.93-3.54,11,.42C402.33,78.09,399,80,394.1,80.35Z" style="fill:#e0e0e0"></path><polygon points="130.59 256.53 188.2 256.53 188.2 382.4 88.83 382.4 88.83 288.23 130.59 256.53" style="fill:#e0e0e0"></polygon><rect x="146.44" y="288.23" width="83.52" height="94.17" transform="translate(376.4 670.63) rotate(180)" style="fill:#ebebeb"></rect><rect x="146.44" y="288.23" width="83.52" height="2.5" transform="translate(376.4 578.96) rotate(180)" style="fill:#e0e0e0"></rect><polygon points="188.2 256.53 229.96 288.23 146.44 288.23 188.2 256.53" style="fill:#ebebeb"></polygon><rect x="159.35" y="304.54" width="57.71" height="17.83" transform="translate(376.4 626.91) rotate(180)" style="fill:#e0e0e0"></rect><rect x="209.45" y="340.72" width="7.6" height="23.39" transform="translate(426.5 704.82) rotate(180)" style="fill:#e0e0e0"></rect><rect x="177.81" y="346.1" width="20.78" height="36.3" transform="translate(376.4 728.5) rotate(180)" style="fill:#e0e0e0"></rect><rect x="159.35" y="340.72" width="7.6" height="23.39" transform="translate(326.29 704.82) rotate(180)" style="fill:#e0e0e0"></rect><rect x="101.08" y="253" width="15.8" height="27.86" transform="translate(217.96 533.86) rotate(180)" style="fill:#e0e0e0"></rect><polygon points="410.41 310.8 372.53 310.79 360.78 319.71 360.78 316.12 353.41 316.12 353.41 325.31 345.07 331.64 345.07 331.64 345.07 333.28 345.07 382.4 365.7 382.4 372.53 382.4 437.87 382.4 437.87 331.64 410.41 310.8" style="fill:#f5f5f5"></polygon><polygon points="308.48 262.17 356.6 262.17 371.52 273.5 371.52 268.93 380.88 268.93 380.88 280.6 391.47 288.64 391.47 288.64 391.47 290.73 391.47 382.4 365.27 382.4 356.6 382.4 273.61 382.4 273.61 288.64 308.48 262.17" style="fill:#f0f0f0"></polygon></g><g id="freepik--Shadow--inject-48"><ellipse id="freepik--path--inject-48" cx="250" cy="416.24" rx="193.89" ry="11.32" style="fill:#f5f5f5"></ellipse></g><g id="freepik--Drone--inject-48"><rect x="175.86" y="218.23" width="14.88" height="1" transform="matrix(0.96, -0.29, 0.29, 0.96, -55.88, 63.05)" style="fill:#103892"></rect><rect x="194.32" y="213.66" width="7.92" height="1" transform="matrix(0.96, -0.29, 0.29, 0.96, -53.89, 67.23)" style="fill:#103892"></rect><rect x="139.1" y="154.37" width="75.04" height="61.85" transform="translate(399.61 311.04) rotate(163.05)" style="fill:#103892"></rect><rect x="211.9" y="139.34" width="28.09" height="61.85" transform="translate(-39.83 73.29) rotate(-16.95)" style="fill:#103892"></rect><rect x="211.9" y="139.34" width="28.09" height="61.85" transform="translate(-39.83 73.29) rotate(-16.95)" style="opacity:0.30000000000000004"></rect><rect x="198.14" y="174.11" width="34.52" height="19.42" transform="matrix(-0.96, 0.29, -0.29, -0.96, 475.04, 296.85)" style="fill:#fff;opacity:0.30000000000000004"></rect><rect x="143.78" y="170.05" width="12.99" height="12.99" transform="translate(345.5 301.6) rotate(163.05)" style="fill:#fff"></rect><rect x="159" y="165.41" width="12.99" height="12.99" transform="translate(373.93 288.08) rotate(163.05)" style="fill:#fff"></rect><path d="M170.68,115.4h0a9.31,9.31,0,0,0,7.71-10.63l-2.22-13.94a9.32,9.32,0,0,0-10.63-7.71h0a9.32,9.32,0,0,0-7.71,10.63l2.22,14A9.31,9.31,0,0,0,170.68,115.4Z" style="fill:#103892"></path><path d="M162.18,99.86A5.95,5.95,0,1,0,167.12,93,6,6,0,0,0,162.18,99.86Z" style="opacity:0.30000000000000004"></path><path d="M164.24,99.53a3.86,3.86,0,1,0,3.21-4.42A3.87,3.87,0,0,0,164.24,99.53Z" style="fill:#263238"></path><path d="M168,97.61a1.18,1.18,0,0,0,2.34-.37,1.18,1.18,0,1,0-2.34.37Z" style="fill:#fff"></path><path d="M166.11,100.89a.59.59,0,0,0,.68.5.6.6,0,0,0,.49-.68.59.59,0,0,0-1.17.18Z" style="fill:#fff"></path><polygon points="218.73 91.82 193.37 94.32 193.96 98.02 219.26 95.18 218.73 91.82" style="fill:#103892"></polygon><polygon points="218.73 91.82 193.37 94.32 193.96 98.02 219.26 95.18 218.73 91.82" style="fill:#fff;opacity:0.30000000000000004"></polygon><path d="M220.26,100.82h0A4.25,4.25,0,0,0,223.78,96l-1-6.38a4.26,4.26,0,0,0-4.86-3.53h0a4.26,4.26,0,0,0-3.53,4.86l1,6.38A4.26,4.26,0,0,0,220.26,100.82Z" style="fill:#103892"></path><path d="M193.46,92l-17.28-1.07,2,12.41,16.25-2.59a2,2,0,0,0,1.67-2.3l-.76-4.76A2,2,0,0,0,193.46,92Z" style="fill:#103892"></path><path d="M215.88,83.37a1.58,1.58,0,1,0,1.31-1.81A1.58,1.58,0,0,0,215.88,83.37Z" style="fill:#103892"></path><path d="M221.63,83.68l12.63-2a1.22,1.22,0,0,0,1-1.39h0a1.2,1.2,0,0,0-1.38-1l-12.63,2a1.22,1.22,0,0,0-1,1.39h0A1.23,1.23,0,0,0,221.63,83.68Z" style="fill:#103892"></path><path d="M201,87l12.63-2a1.2,1.2,0,0,0,1-1.38h0a1.2,1.2,0,0,0-1.38-1l-12.63,2a1.2,1.2,0,0,0-1,1.38h0A1.21,1.21,0,0,0,201,87Z" style="fill:#103892"></path><polygon points="117.69 107.93 142.56 102.42 143.15 106.12 118.22 111.29 117.69 107.93" style="fill:#103892"></polygon><polygon points="117.69 107.93 142.56 102.42 143.15 106.12 118.22 111.29 117.69 107.93" style="fill:#fff;opacity:0.30000000000000004"></polygon><path d="M119,117h0a4.25,4.25,0,0,1-4.86-3.53l-1-6.38a4.26,4.26,0,0,1,3.52-4.86h0a4.27,4.27,0,0,1,4.87,3.53l1,6.38A4.25,4.25,0,0,1,119,117Z" style="fill:#103892"></path><path d="M141.76,100.23l16.09-6.38,2,12.41-16.25,2.59a2,2,0,0,1-2.3-1.67l-.76-4.76A2,2,0,0,1,141.76,100.23Z" style="fill:#103892"></path><path d="M117.77,99A1.58,1.58,0,1,1,116,97.7,1.58,1.58,0,0,1,117.77,99Z" style="fill:#103892"></path><path d="M112.4,101.09l-12.63,2a1.22,1.22,0,0,1-1.39-1h0a1.22,1.22,0,0,1,1-1.38l12.63-2a1.21,1.21,0,0,1,1.38,1h0A1.2,1.2,0,0,1,112.4,101.09Z" style="fill:#103892"></path><path d="M133,97.8l-12.63,2a1.22,1.22,0,0,1-1.39-1h0a1.22,1.22,0,0,1,1-1.38l12.63-2a1.2,1.2,0,0,1,1.38,1h0A1.2,1.2,0,0,1,133,97.8Z" style="fill:#103892"></path><path d="M226,135.87a1.12,1.12,0,0,1-.36-.05L171.5,120.33a1.32,1.32,0,0,1,.73-2.53l54.08,15.49a1.32,1.32,0,0,1,.9,1.63A1.3,1.3,0,0,1,226,135.87Z" style="fill:#263238"></path><path d="M202.63,141.76a1.31,1.31,0,0,1-.75-.24l-30.77-21.37a1.32,1.32,0,1,1,1.51-2.16l30.76,21.37a1.32,1.32,0,0,1-.75,2.4Z" style="fill:#263238"></path><path d="M133.55,164.1a1.31,1.31,0,0,1-1-2.18l38.31-43.72a1.31,1.31,0,0,1,2,1.73l-38.31,43.72A1.31,1.31,0,0,1,133.55,164.1Z" style="fill:#263238"></path></g><g id="freepik--Character--inject-48"><path d="M279.19,178.65H279a1.17,1.17,0,0,0-1.11,1.52l4.19,13.31h1.64Z" style="fill:#103892"></path><path d="M278.19,208h1.29l-7.86-25.71h0a2.11,2.11,0,0,0-2,2.72l6.57,21.5A2.12,2.12,0,0,0,278.19,208Z" style="fill:#103892"></path><path d="M309.78,182.26h-7.49l-1.1-3.61h-5.42l-2-6.44a.5.5,0,0,0-.62-.34.51.51,0,0,0-.33.63l1.88,6.15h-9.5l-4-13a.5.5,0,1,0-.95.29l3.88,12.71h-5l1.1,3.61h-8.67L279.48,208h38.16Z" style="fill:#103892"></path><path d="M309.78,182.26h-7.49l-1.1-3.61h-5.42l-2-6.44a.5.5,0,0,0-.62-.34.51.51,0,0,0-.33.63l1.88,6.15h-9.5l-4-13a.5.5,0,1,0-.95.29l3.88,12.71h-5l1.1,3.61h-8.67L279.48,208h38.16Z" style="fill:#fff;opacity:0.4"></path><path d="M342.22,163.48c1.18,1.82,2.18,3.57,3.2,5.38s2,3.63,2.92,5.47c1.87,3.69,3.58,7.49,5.1,11.41.78,1.95,1.45,4,2.09,6l.12.4.17.65a9.46,9.46,0,0,1,.23,1.33,10.32,10.32,0,0,1-.06,2.72,11.66,11.66,0,0,1-1.76,4.56,17.34,17.34,0,0,1-5.64,5.23,25.8,25.8,0,0,1-3,1.56,24.5,24.5,0,0,1-3.23,1.14l-2.34-5a44.19,44.19,0,0,0,3.9-3.7,11.13,11.13,0,0,0,2.41-3.65,2.09,2.09,0,0,0,.12-1.12,1.57,1.57,0,0,0-.14-.29.7.7,0,0,0-.08-.14.25.25,0,0,1,0-.07l-.13-.32c-.71-1.74-1.48-3.47-2.28-5.22-1.63-3.47-3.4-6.93-5.27-10.36l-2.82-5.13-2.89-5Z" style="fill:#ffb573"></path><path d="M342.48,203.8l-5.26-1.37-.3,8.48s4.11.61,6.63-1.9Z" style="fill:#ffb573"></path><polygon points="329.77 201 330.96 208.45 336.92 210.91 337.22 202.43 329.77 201" style="fill:#ffb573"></polygon><path d="M308,129.36c-.12.58-.52,1-.9.91s-.59-.61-.47-1.19.52-1,.9-.91S308.16,128.78,308,129.36Z" style="fill:#263238"></path><path d="M307.57,130.36a21.21,21.21,0,0,1-3.78,4.4,3.4,3.4,0,0,0,2.67,1.08Z" style="fill:#ed893e"></path><path d="M310.82,126.57a.37.37,0,0,0,.24-.1.35.35,0,0,0,0-.49,3.47,3.47,0,0,0-3-1.15.35.35,0,0,0-.29.4.36.36,0,0,0,.4.29h0a2.78,2.78,0,0,1,2.34.93A.33.33,0,0,0,310.82,126.57Z" style="fill:#263238"></path><path d="M324.58,137.53c-1.05,5.37-2.1,15.22,1.66,18.8,0,0-1.47,5.45-11.46,5.45-11,0-5.25-5.45-5.25-5.45,6-1.43,5.84-5.87,4.8-10.05Z" style="fill:#ffb573"></path><path d="M328.4,157.33c.81-1.49,1.69-3.2-.14-3.74-2-.59-14.93-1.68-18.73-.57,1.17,2.07-.81,4.62-.81,4.62Z" style="fill:#103892"></path><path d="M360.94,407.88a2.37,2.37,0,0,1-1.83-.1.71.71,0,0,1-.17-.81.81.81,0,0,1,.45-.51c1-.47,3.27.46,3.36.5a.15.15,0,0,1,.11.15.16.16,0,0,1-.1.16A8.82,8.82,0,0,1,360.94,407.88Zm-1.2-1.17a1.17,1.17,0,0,0-.2.06.5.5,0,0,0-.27.3c-.09.32,0,.41.06.45.4.33,1.86,0,2.9-.39A5.71,5.71,0,0,0,359.74,406.71Z" style="fill:#103892"></path><path d="M362.73,407.29h-.09c-.83-.24-2.61-1.5-2.63-2.33a.58.58,0,0,1,.45-.57,1,1,0,0,1,.77.06c1,.51,1.6,2.54,1.62,2.63a.16.16,0,0,1,0,.17Zm-2.08-2.6-.08,0c-.22.08-.21.18-.21.23,0,.49,1.18,1.48,2,1.88a4.18,4.18,0,0,0-1.33-2.07A.63.63,0,0,0,360.65,404.69Z" style="fill:#103892"></path><path d="M306.7,409.11c-.95,0-1.86-.13-2.16-.55a.66.66,0,0,1,0-.76.9.9,0,0,1,.55-.41c1.23-.33,3.79,1.13,3.9,1.2a.16.16,0,0,1,.09.18.18.18,0,0,1-.14.14A13.29,13.29,0,0,1,306.7,409.11Zm-1.17-1.42a1.15,1.15,0,0,0-.33,0,.51.51,0,0,0-.35.24c-.12.22-.07.33,0,.39.34.47,2.2.48,3.57.29A7.93,7.93,0,0,0,305.53,407.69Z" style="fill:#103892"></path><path d="M308.92,408.91h-.08c-.88-.4-2.64-2-2.5-2.82,0-.2.17-.44.64-.49a1.33,1.33,0,0,1,1,.3c.93.77,1.13,2.75,1.14,2.83a.17.17,0,0,1-.07.16A.19.19,0,0,1,308.92,408.91Zm-1.8-3H307c-.31,0-.33.15-.34.19-.08.5,1.11,1.75,2,2.29a4.15,4.15,0,0,0-1-2.26A1,1,0,0,0,307.12,405.93Z" style="fill:#103892"></path><polygon points="316.99 408.74 309.65 408.74 308.92 391.73 316.26 391.73 316.99 408.74" style="fill:#ffb573"></polygon><polygon points="370.91 405.34 363.73 406.89 356.52 391.05 363.7 389.49 370.91 405.34" style="fill:#ffb573"></polygon><path d="M363,406.17l8.07-1.75a.66.66,0,0,1,.72.36l2.8,6.08a1.08,1.08,0,0,1-.78,1.5c-2.82.56-4.23.69-7.77,1.46-2.19.47-7.11,1.67-10.13,2.33s-4.05-2.25-2.87-2.78c5.27-2.41,7.47-4.53,8.89-6.51A1.8,1.8,0,0,1,363,406.17Z" style="fill:#263238"></path><path d="M309.7,407.89h8a.62.62,0,0,1,.62.5l1.46,6.53a1.07,1.07,0,0,1-1.06,1.3c-2.9,0-7.08-.21-10.71-.21-4.26,0-7.93.23-12.92.23-3,0-3.85-3.05-2.59-3.33,5.75-1.25,10.44-1.39,15.41-4.45A3.41,3.41,0,0,1,309.7,407.89Z" style="fill:#263238"></path><path d="M339.39,158c6.89,1.58,12.56,19.16,12.56,19.16l-13.82,10.54a30.2,30.2,0,0,1-7.34-13.58C328.43,164.9,332.35,156.38,339.39,158Z" style="fill:#103892"></path><path d="M333.49,170.92c3.74,3.7,5,10.44,5.25,16.3l-.61.47a30.2,30.2,0,0,1-7.34-13.58c-.14-.55-.26-1.1-.36-1.64Z" style="opacity:0.2"></path><path d="M298.23,158.37s-7.82,8.83-.43,63.5h39.29c.27-6-3.52-35.46,2.3-63.88a102.56,102.56,0,0,0-13.15-1.66,145.44,145.44,0,0,0-16.71,0A73.5,73.5,0,0,0,298.23,158.37Z" style="fill:#103892"></path><polygon points="308.92 391.73 309.29 400.5 316.64 400.5 316.27 391.73 308.92 391.73" style="opacity:0.2"></polygon><polygon points="363.71 389.49 356.53 391.05 360.25 399.22 367.43 397.66 363.71 389.49" style="opacity:0.2"></polygon><path d="M327.66,132.06c-1.89,7.05-2.64,11.26-7,14.19-6.54,4.41-14.68-.65-14.93-8.11-.23-6.72,2.89-17.11,10.45-18.53A9.94,9.94,0,0,1,327.66,132.06Z" style="fill:#ffb573"></path><path d="M312.4,132.06c-.67-2.51-2.25-7,1.13-8.35,4.54-1.67,13.82-1,17.52,1.51,3.56,6.16-.77,11.74-3,14.28s-2.38,4.17-3.84,4.83c-2.79,1.28-8.76-.15-9.52-2.59C313.7,138.67,309.64,135.85,312.4,132.06Z" style="fill:#263238"></path><path d="M329.79,125.92s3.11-1.56,2.4-6C334.67,123,333.3,129.06,329.79,125.92Z" style="fill:#263238"></path><path d="M330.54,127.53s1.5.08,3.13,3.33C333.79,128,332,124.56,330.54,127.53Z" style="fill:#263238"></path><path d="M317.14,124.25c-5,.47-8.32-1.25-10.2-4.21a6.85,6.85,0,0,0,3.25,0,4.4,4.4,0,0,0-3.54-1.46,6.93,6.93,0,0,1,5.71-1.29,7.91,7.91,0,0,1-.71-5.71c.79,1.84,5.08,3.84,6.63,3.88,0,0-2.18-2.5-1.41-5.13,1.61,2.42,5.45,6.92,10.45,7.92,4.15.83,8.05,9.13,1,8.83C319,126.7,317.14,124.25,317.14,124.25Z" style="fill:#263238"></path><path d="M315.68,131.73a8.29,8.29,0,0,1-3,4.39c-1.91,1.42-3.34,0-3.2-2.14.12-1.95,1.26-5,3.37-5.62S316.22,129.62,315.68,131.73Z" style="fill:#ffb573"></path><path d="M311.74,221.87S320.07,278,324.65,299c5,23,31.89,99.24,31.89,99.24l13.15-2.85s-18.79-62.1-23-94.3c-3.23-24.73-9.6-79.26-9.6-79.26Z" style="fill:#103892"></path><path d="M353.39,393.89c-.06,0,2.45,4.76,2.45,4.76l14.8-3.21L369.39,391Z" style="fill:#263238"></path><path d="M317,241.87c9.64,1.89,8.62,37.84,7.46,56.33-2.78-13.07-6.85-38.22-9.63-56.07A3.29,3.29,0,0,1,317,241.87Z" style="opacity:0.30000000000000004"></path><path d="M297.8,221.87s-1,54.93-.21,77.33c.83,23.3,9,99.6,9,99.6H319s.46-74.94,1-97.82c.61-25,3.62-79.11,3.62-79.11Z" style="fill:#103892"></path><path d="M304.16,393.84c-.06,0,.7,5.17.7,5.17H320l.41-4.61Z" style="fill:#263238"></path><path d="M298.05,157.6c-1.92.87-3.77,2.44-4.33,7.62-.53,5,.5,48.62,1.75,62.56a2.09,2.09,0,0,0,1.62,1.91c7.76,1.55,31.15,1.28,39.59.2a2.06,2.06,0,0,0,1.73-2c.68-13.49,2.62-37.22,2.62-51.25,0-9.15,1-18.59-6-20.2C329.89,155.23,305.55,154.18,298.05,157.6Z" style="fill:#263238"></path><path d="M306,170.36c-.34,2.11-.75,4-1.2,6s-.93,3.93-1.49,5.89A80.37,80.37,0,0,1,299.06,194a35.31,35.31,0,0,1-3.41,5.94,17.66,17.66,0,0,1-2.76,3,11.35,11.35,0,0,1-2.08,1.45,10.39,10.39,0,0,1-1.15.51,9.92,9.92,0,0,1-1.24.38,10,10,0,0,1-5.33-.14,10.47,10.47,0,0,1-4-2.37,13.09,13.09,0,0,1-2.4-3c-.29-.53-.57-1.06-.8-1.6s-.4-1.06-.62-1.75l4.87-2.59c.25.16.62.48.93.72s.65.5,1,.71a8.19,8.19,0,0,0,1.83,1,2,2,0,0,0,1.23.12c.24-.1.28-.21.43-.38l.29-.27.27-.28a8.81,8.81,0,0,0,1-1.39,28.2,28.2,0,0,0,2.11-4.33,91.35,91.35,0,0,0,3.28-10.38c.46-1.8.92-3.61,1.34-5.44s.81-3.71,1.17-5.43Z" style="fill:#ffb573"></path><path d="M311.17,165.56c6,12-8.21,25.56-8.21,25.56l-15.81-8.26a86.68,86.68,0,0,1,5.4-18.53C297.16,154.1,307.74,158.65,311.17,165.56Z" style="fill:#103892"></path><path d="M277.52,198.65l-5.75-2.84,3.05-7.43s6.37,2.1,6,7.43Z" style="fill:#ffb573"></path><polygon points="270.38 193.98 269.83 187.33 274.82 188.38 271.77 195.81 270.38 193.98" style="fill:#ffb573"></polygon></g></svg>